<svg xmlns="http://www.w3.org/2000/svg" xmlns:xlink="http://www.w3.org/1999/xlink" width="500" zoomAndPan="magnify" viewBox="0 0 375 374.999991" height="500" preserveAspectRatio="xMidYMid meet" version="1.0"><defs><g/><clipPath id="9ca39802da"><path d="M 81 52 L 259.0625 52 L 259.0625 222.367188 L 81 222.367188 Z M 81 52 " clip-rule="nonzero"/></clipPath><clipPath id="06f562d68d"><path d="M 125 8.617188 L 216 8.617188 L 216 89 L 125 89 Z M 125 8.617188 " clip-rule="nonzero"/></clipPath><clipPath id="802466b65c"><path d="M 169 104 L 288 104 L 288 248 L 169 248 Z M 169 104 " clip-rule="nonzero"/></clipPath><clipPath id="82939e83b3"><path d="M 169.816406 121.460938 L 265.539062 104.898438 L 287.375 231.089844 L 191.65625 247.652344 Z M 169.816406 121.460938 " clip-rule="nonzero"/></clipPath><clipPath id="e0020c2087"><path d="M 154 123 L 283 123 L 283 235 L 154 235 Z M 154 123 " clip-rule="nonzero"/></clipPath><clipPath id="0c7d8e88f4"><path d="M 149.898438 161.59375 L 255.847656 118.542969 L 287.425781 196.261719 L 181.476562 239.3125 Z M 149.898438 161.59375 " clip-rule="nonzero"/></clipPath><clipPath id="4d931373c2"><path d="M 163.792969 155.945312 L 241.902344 124.210938 C 245.585938 122.710938 249.714844 122.738281 253.378906 124.285156 C 257.046875 125.835938 259.945312 128.773438 261.445312 132.460938 L 281.730469 182.382812 C 283.226562 186.070312 283.199219 190.199219 281.652344 193.863281 C 280.105469 197.53125 277.164062 200.429688 273.480469 201.925781 L 195.371094 233.664062 C 191.6875 235.164062 187.558594 235.132812 183.890625 233.585938 C 180.226562 232.039062 177.328125 229.101562 175.828125 225.414062 L 155.542969 175.488281 C 154.046875 171.804688 154.074219 167.675781 155.621094 164.011719 C 157.167969 160.34375 160.109375 157.445312 163.792969 155.945312 Z M 163.792969 155.945312 " clip-rule="nonzero"/></clipPath><clipPath id="646bc88920"><path d="M 112 107 L 308 107 L 308 221 L 112 221 Z M 112 107 " clip-rule="nonzero"/></clipPath><clipPath id="ff1cd17732"><path d="M 111.769531 108.375 L 298.898438 76.9375 L 329.214844 257.410156 L 142.085938 288.84375 Z M 111.769531 108.375 " clip-rule="nonzero"/></clipPath><clipPath id="911432ff04"><path d="M 111.769531 108.375 L 298.898438 76.9375 L 329.214844 257.410156 L 142.085938 288.84375 Z M 111.769531 108.375 " clip-rule="nonzero"/></clipPath><clipPath id="fc0c80a018"><path d="M 186 225 L 235 225 L 235 274 L 186 274 Z M 186 225 " clip-rule="nonzero"/></clipPath><clipPath id="1a40b0f1df"><path d="M 111.769531 108.375 L 298.898438 76.9375 L 329.214844 257.410156 L 142.085938 288.84375 Z M 111.769531 108.375 " clip-rule="nonzero"/></clipPath><clipPath id="3e373a28b1"><path d="M 111.769531 108.375 L 298.898438 76.9375 L 329.214844 257.410156 L 142.085938 288.84375 Z M 111.769531 108.375 " clip-rule="nonzero"/></clipPath><clipPath id="c7527dd26c"><path d="M 252 214 L 301 214 L 301 263 L 252 263 Z M 252 214 " clip-rule="nonzero"/></clipPath><clipPath id="79d9ccc684"><path d="M 111.769531 108.375 L 298.898438 76.9375 L 329.214844 257.410156 L 142.085938 288.84375 Z M 111.769531 108.375 " clip-rule="nonzero"/></clipPath><clipPath id="fd0224c305"><path d="M 111.769531 108.375 L 298.898438 76.9375 L 329.214844 257.410156 L 142.085938 288.84375 Z M 111.769531 108.375 " clip-rule="nonzero"/></clipPath><clipPath id="38b2a7572e"><path d="M 271.746094 85.679688 L 331.726562 85.679688 L 331.726562 145.65625 L 271.746094 145.65625 Z M 271.746094 85.679688 " clip-rule="nonzero"/></clipPath><clipPath id="929cda9fc3"><path d="M 301.738281 85.679688 C 285.175781 85.679688 271.746094 99.105469 271.746094 115.667969 C 271.746094 132.230469 285.175781 145.65625 301.738281 145.65625 C 318.300781 145.65625 331.726562 132.230469 331.726562 115.667969 C 331.726562 99.105469 318.300781 85.679688 301.738281 85.679688 Z M 301.738281 85.679688 " clip-rule="nonzero"/></clipPath><clipPath id="ec7635b17c"><path d="M 279.804688 93.738281 L 323.667969 93.738281 L 323.667969 137.597656 L 279.804688 137.597656 Z M 279.804688 93.738281 " clip-rule="nonzero"/></clipPath><clipPath id="eafadb417e"><path d="M 301.738281 93.738281 C 289.625 93.738281 279.804688 103.554688 279.804688 115.667969 C 279.804688 127.78125 289.625 137.597656 301.738281 137.597656 C 313.847656 137.597656 323.667969 127.78125 323.667969 115.667969 C 323.667969 103.554688 313.847656 93.738281 301.738281 93.738281 Z M 301.738281 93.738281 " clip-rule="nonzero"/></clipPath><clipPath id="2dee1feb7a"><path d="M 288 105.152344 L 315.714844 105.152344 L 315.714844 126 L 288 126 Z M 288 105.152344 " clip-rule="nonzero"/></clipPath></defs><rect x="-37.5" width="450" fill="#ffffff" y="-37.499999" height="449.999989" fill-opacity="1"/><rect x="-37.5" width="450" fill="#ffffff" y="-37.499999" height="449.999989" fill-opacity="1"/><g clip-path="url(#9ca39802da)"><path fill="#0182ca" d="M 245.894531 222.71875 L 94.625 222.71875 C 90.953125 222.71875 87.386719 221.1875 84.871094 218.515625 C 82.34375 215.847656 81.007812 212.210938 81.214844 208.535156 L 89.179688 65.203125 C 89.574219 58.082031 95.460938 52.511719 102.589844 52.511719 L 237.929688 52.511719 C 245.0625 52.511719 250.945312 58.082031 251.339844 65.203125 L 259.304688 208.535156 C 259.511719 212.210938 258.175781 215.847656 255.648438 218.515625 C 253.125 221.1875 249.566406 222.71875 245.894531 222.71875 Z M 102.589844 61.46875 C 100.214844 61.46875 98.246094 63.332031 98.121094 65.699219 L 90.15625 209.03125 C 90.09375 210.273438 90.523438 211.457031 91.375 212.363281 C 92.234375 213.257812 93.378906 213.757812 94.625 213.757812 L 245.894531 213.757812 C 247.140625 213.757812 248.296875 213.257812 249.144531 212.363281 C 249.996094 211.457031 250.4375 210.273438 250.363281 209.03125 L 242.402344 65.699219 C 242.277344 63.332031 240.304688 61.46875 237.929688 61.46875 Z M 102.589844 61.46875 " fill-opacity="1" fill-rule="nonzero"/></g><g clip-path="url(#06f562d68d)"><path fill="#0182ca" d="M 210.570312 88.558594 C 208.101562 88.558594 206.09375 86.550781 206.09375 84.078125 L 206.09375 53.335938 C 206.09375 33.574219 190.023438 17.503906 170.261719 17.503906 C 150.5 17.503906 134.425781 33.574219 134.425781 53.335938 L 134.425781 84.078125 C 134.425781 86.550781 132.421875 88.558594 129.949219 88.558594 C 127.476562 88.558594 125.46875 86.550781 125.46875 84.078125 L 125.46875 53.335938 C 125.46875 28.636719 145.5625 8.542969 170.261719 8.542969 C 194.957031 8.542969 215.050781 28.636719 215.050781 53.335938 L 215.050781 84.078125 C 215.050781 86.550781 213.042969 88.558594 210.570312 88.558594 Z M 210.570312 88.558594 " fill-opacity="1" fill-rule="nonzero"/></g><g clip-path="url(#802466b65c)"><g clip-path="url(#82939e83b3)"><path fill="#ffffff" d="M 169.816406 121.460938 L 265.539062 104.898438 L 287.34375 230.90625 L 191.625 247.46875 Z M 169.816406 121.460938 " fill-opacity="1" fill-rule="nonzero"/></g></g><g clip-path="url(#e0020c2087)"><g clip-path="url(#0c7d8e88f4)"><g clip-path="url(#4d931373c2)"><path fill="#ffffff" d="M 149.898438 161.59375 L 255.847656 118.542969 L 287.425781 196.261719 L 181.476562 239.3125 Z M 149.898438 161.59375 " fill-opacity="1" fill-rule="nonzero"/></g></g></g><g clip-path="url(#646bc88920)"><g clip-path="url(#ff1cd17732)"><g clip-path="url(#911432ff04)"><path fill="#14c18e" d="M 285.894531 114.234375 L 175.96875 132.699219 C 175.585938 132.761719 175.214844 132.863281 174.851562 133 C 174.488281 133.140625 174.144531 133.3125 173.816406 133.515625 C 173.488281 133.722656 173.179688 133.957031 172.898438 134.222656 C 172.617188 134.488281 172.363281 134.78125 172.136719 135.097656 C 171.914062 135.414062 171.722656 135.746094 171.5625 136.101562 C 171.402344 136.453125 171.28125 136.820312 171.191406 137.199219 C 171.105469 137.574219 171.058594 137.957031 171.046875 138.347656 C 171.035156 138.734375 171.058594 139.117188 171.125 139.5 C 171.1875 139.882812 171.289062 140.253906 171.425781 140.617188 C 171.566406 140.980469 171.734375 141.328125 171.941406 141.65625 C 172.148438 141.984375 172.382812 142.289062 172.648438 142.570312 C 172.914062 142.855469 173.207031 143.105469 173.523438 143.332031 C 173.835938 143.558594 174.171875 143.75 174.527344 143.910156 C 174.878906 144.066406 175.246094 144.191406 175.625 144.277344 C 176 144.363281 176.382812 144.414062 176.769531 144.425781 C 177.160156 144.4375 177.542969 144.410156 177.925781 144.347656 L 287.851562 125.878906 C 288.121094 125.835938 288.390625 125.804688 288.664062 125.796875 C 288.933594 125.785156 289.207031 125.792969 289.476562 125.816406 C 289.75 125.839844 290.019531 125.878906 290.285156 125.9375 C 290.550781 125.996094 290.8125 126.070312 291.066406 126.160156 C 291.324219 126.253906 291.574219 126.359375 291.816406 126.484375 C 292.0625 126.605469 292.296875 126.746094 292.519531 126.898438 C 292.746094 127.050781 292.960938 127.21875 293.164062 127.398438 C 293.367188 127.578125 293.5625 127.769531 293.738281 127.976562 C 293.917969 128.179688 294.085938 128.394531 294.238281 128.621094 C 294.390625 128.847656 294.527344 129.082031 294.648438 129.324219 C 294.769531 129.570312 294.878906 129.820312 294.96875 130.078125 C 295.058594 130.332031 295.132812 130.59375 295.1875 130.863281 C 295.246094 131.128906 295.285156 131.398438 295.308594 131.667969 C 295.332031 131.941406 295.335938 132.210938 295.324219 132.484375 C 295.3125 132.757812 295.285156 133.027344 295.238281 133.292969 C 295.191406 133.5625 295.128906 133.828125 295.046875 134.089844 C 290.636719 148.5625 286.136719 179.957031 282.984375 190.238281 C 282.808594 190.808594 282.5625 191.34375 282.238281 191.84375 C 281.914062 192.34375 281.527344 192.789062 281.082031 193.183594 C 280.632812 193.574219 280.140625 193.898438 279.601562 194.152344 C 279.0625 194.410156 278.5 194.585938 277.914062 194.683594 L 196.988281 208.277344 C 196.355469 208.386719 195.71875 208.398438 195.078125 208.3125 C 194.441406 208.230469 193.832031 208.054688 193.246094 207.785156 C 192.660156 207.519531 192.128906 207.171875 191.648438 206.742188 C 191.167969 206.3125 190.761719 205.824219 190.425781 205.273438 C 190.414062 205.207031 158.492188 126.601562 158.492188 126.601562 C 157.847656 125 157.070312 123.46875 156.164062 122 C 155.257812 120.53125 154.234375 119.152344 153.089844 117.855469 C 151.949219 116.5625 150.710938 115.375 149.367188 114.289062 C 148.023438 113.207031 146.601562 112.242188 145.09375 111.398438 C 143.589844 110.558594 142.023438 109.847656 140.398438 109.269531 C 138.769531 108.691406 137.109375 108.257812 135.40625 107.960938 C 133.707031 107.667969 131.996094 107.515625 130.269531 107.511719 C 128.542969 107.507812 126.832031 107.648438 125.128906 107.933594 L 117.894531 109.148438 C 117.503906 109.195312 117.121094 109.28125 116.75 109.410156 C 116.375 109.535156 116.019531 109.699219 115.683594 109.902344 C 115.34375 110.101562 115.03125 110.335938 114.742188 110.601562 C 114.449219 110.871094 114.191406 111.164062 113.964844 111.484375 C 113.734375 111.804688 113.542969 112.144531 113.386719 112.507812 C 113.226562 112.867188 113.109375 113.242188 113.03125 113.625 C 112.953125 114.011719 112.914062 114.402344 112.917969 114.796875 C 112.917969 115.191406 112.960938 115.578125 113.046875 115.964844 C 113.109375 116.347656 113.210938 116.71875 113.351562 117.078125 C 113.488281 117.441406 113.660156 117.789062 113.867188 118.117188 C 114.070312 118.445312 114.308594 118.75 114.574219 119.03125 C 114.839844 119.3125 115.128906 119.566406 115.445312 119.789062 C 115.761719 120.015625 116.097656 120.207031 116.449219 120.367188 C 116.804688 120.527344 117.167969 120.648438 117.546875 120.738281 C 117.921875 120.824219 118.304688 120.875 118.691406 120.886719 C 119.082031 120.898438 119.464844 120.871094 119.847656 120.808594 L 127.089844 119.59375 C 128.132812 119.417969 129.179688 119.332031 130.238281 119.332031 C 131.292969 119.335938 132.34375 119.425781 133.386719 119.605469 C 134.425781 119.785156 135.445312 120.054688 136.441406 120.40625 C 137.4375 120.757812 138.398438 121.191406 139.320312 121.707031 C 140.246094 122.222656 141.117188 122.8125 141.941406 123.472656 C 142.765625 124.136719 143.527344 124.863281 144.226562 125.65625 C 144.925781 126.449219 145.554688 127.292969 146.113281 128.191406 C 146.667969 129.089844 147.148438 130.027344 147.546875 131.007812 L 179.578125 209.957031 C 179.65625 210.136719 179.746094 210.328125 179.835938 210.503906 C 180.28125 211.34375 180.789062 212.140625 181.359375 212.902344 C 181.929688 213.660156 182.558594 214.371094 183.238281 215.03125 C 183.921875 215.695312 184.648438 216.300781 185.425781 216.847656 C 186.203125 217.394531 187.015625 217.878906 187.871094 218.296875 C 188.722656 218.71875 189.601562 219.070312 190.507812 219.351562 C 191.414062 219.636719 192.339844 219.84375 193.277344 219.984375 C 194.21875 220.121094 195.164062 220.1875 196.113281 220.175781 C 197.0625 220.167969 198.007812 220.082031 198.945312 219.925781 L 279.871094 206.332031 C 281.539062 206.050781 283.136719 205.546875 284.667969 204.820312 C 286.195312 204.097656 287.597656 203.175781 288.867188 202.058594 C 290.140625 200.941406 291.234375 199.675781 292.152344 198.253906 C 293.074219 196.832031 293.78125 195.3125 294.273438 193.695312 C 297.421875 183.414062 301.902344 152.035156 306.335938 137.542969 C 306.449219 137.171875 306.550781 136.800781 306.640625 136.425781 C 306.730469 136.050781 306.808594 135.671875 306.875 135.289062 C 306.9375 134.910156 306.992188 134.527344 307.035156 134.144531 C 307.074219 133.757812 307.105469 133.375 307.121094 132.988281 C 307.136719 132.601562 307.140625 132.214844 307.132812 131.828125 C 307.125 131.441406 307.105469 131.058594 307.074219 130.671875 C 307.039062 130.289062 306.996094 129.902344 306.9375 129.519531 C 306.882812 129.140625 306.8125 128.757812 306.730469 128.382812 C 306.652344 128.003906 306.558594 127.628906 306.453125 127.257812 C 306.347656 126.886719 306.230469 126.515625 306.105469 126.152344 C 305.976562 125.789062 305.835938 125.429688 305.683594 125.074219 C 305.535156 124.71875 305.371094 124.367188 305.199219 124.023438 C 305.023438 123.675781 304.839844 123.335938 304.644531 123.003906 C 304.449219 122.667969 304.246094 122.34375 304.027344 122.023438 C 303.8125 121.703125 303.585938 121.390625 303.351562 121.082031 C 303.117188 120.777344 302.871094 120.476562 302.617188 120.1875 C 302.359375 119.898438 302.097656 119.617188 301.824219 119.339844 C 301.550781 119.066406 301.269531 118.804688 300.980469 118.546875 C 300.691406 118.292969 300.394531 118.046875 300.089844 117.808594 C 299.785156 117.570312 299.472656 117.34375 299.152344 117.128906 C 298.832031 116.910156 298.503906 116.703125 298.171875 116.507812 C 297.839844 116.3125 297.5 116.125 297.15625 115.949219 C 296.8125 115.777344 296.460938 115.613281 296.109375 115.460938 C 295.753906 115.308594 295.394531 115.167969 295.027344 115.035156 C 294.664062 114.90625 294.296875 114.789062 293.925781 114.683594 C 293.554688 114.578125 293.179688 114.484375 292.800781 114.398438 C 292.425781 114.316406 292.046875 114.246094 291.664062 114.1875 C 291.28125 114.128906 290.898438 114.085938 290.511719 114.050781 C 290.128906 114.015625 289.742188 113.996094 289.355469 113.984375 C 288.96875 113.976562 288.585938 113.980469 288.199219 113.996094 C 287.8125 114.011719 287.425781 114.039062 287.042969 114.078125 C 286.65625 114.117188 286.277344 114.167969 285.894531 114.234375 Z M 285.894531 114.234375 " fill-opacity="1" fill-rule="evenodd"/></g></g></g><g clip-path="url(#fc0c80a018)"><g clip-path="url(#1a40b0f1df)"><g clip-path="url(#3e373a28b1)"><path fill="#14c18e" d="M 206.421875 225.691406 C 205.640625 225.824219 204.871094 225.992188 204.109375 226.199219 C 203.34375 226.40625 202.59375 226.648438 201.855469 226.929688 C 201.117188 227.210938 200.394531 227.523438 199.6875 227.875 C 198.976562 228.226562 198.289062 228.613281 197.621094 229.03125 C 196.949219 229.453125 196.300781 229.902344 195.675781 230.386719 C 195.050781 230.867188 194.449219 231.382812 193.875 231.921875 C 193.300781 232.464844 192.753906 233.035156 192.234375 233.628906 C 191.714844 234.222656 191.226562 234.84375 190.765625 235.488281 C 190.308594 236.132812 189.882812 236.796875 189.488281 237.480469 C 189.097656 238.167969 188.738281 238.871094 188.414062 239.589844 C 188.089844 240.3125 187.800781 241.046875 187.550781 241.796875 C 187.296875 242.542969 187.082031 243.304688 186.90625 244.074219 C 186.726562 244.84375 186.589844 245.621094 186.488281 246.40625 C 186.386719 247.1875 186.324219 247.976562 186.300781 248.765625 C 186.277344 249.554688 186.292969 250.34375 186.347656 251.132812 C 186.402344 251.921875 186.492188 252.707031 186.625 253.484375 C 186.753906 254.265625 186.925781 255.035156 187.132812 255.796875 C 187.339844 256.5625 187.582031 257.3125 187.863281 258.050781 C 188.144531 258.789062 188.457031 259.511719 188.808594 260.21875 C 189.160156 260.925781 189.546875 261.617188 189.964844 262.285156 C 190.386719 262.957031 190.835938 263.605469 191.320312 264.230469 C 191.804688 264.855469 192.316406 265.457031 192.855469 266.03125 C 193.398438 266.605469 193.96875 267.152344 194.5625 267.671875 C 195.160156 268.191406 195.777344 268.679688 196.421875 269.140625 C 197.066406 269.597656 197.730469 270.023438 198.417969 270.414062 C 199.101562 270.808594 199.804688 271.167969 200.527344 271.492188 C 201.246094 271.816406 201.980469 272.101562 202.730469 272.355469 C 203.480469 272.605469 204.238281 272.820312 205.007812 273 C 205.78125 273.175781 206.554688 273.316406 207.339844 273.414062 C 208.125 273.515625 208.910156 273.578125 209.699219 273.601562 C 210.492188 273.625 211.28125 273.609375 212.066406 273.554688 C 212.855469 273.503906 213.640625 273.410156 214.417969 273.277344 C 215.199219 273.148438 215.96875 272.980469 216.734375 272.773438 C 217.496094 272.566406 218.246094 272.320312 218.984375 272.039062 C 219.722656 271.761719 220.445312 271.445312 221.15625 271.09375 C 221.863281 270.742188 222.550781 270.355469 223.222656 269.9375 C 223.890625 269.515625 224.539062 269.066406 225.164062 268.582031 C 225.789062 268.097656 226.390625 267.585938 226.964844 267.046875 C 227.539062 266.503906 228.085938 265.933594 228.605469 265.339844 C 229.125 264.742188 229.613281 264.125 230.074219 263.480469 C 230.53125 262.835938 230.957031 262.171875 231.351562 261.484375 C 231.742188 260.800781 232.101562 260.097656 232.425781 259.375 C 232.75 258.65625 233.039062 257.921875 233.289062 257.171875 C 233.539062 256.421875 233.753906 255.664062 233.933594 254.890625 C 234.109375 254.121094 234.25 253.34375 234.347656 252.5625 C 234.449219 251.777344 234.511719 250.992188 234.535156 250.199219 C 234.558594 249.410156 234.542969 248.621094 234.488281 247.832031 C 234.433594 247.042969 234.34375 246.261719 234.210938 245.480469 C 234.078125 244.703125 233.910156 243.933594 233.703125 243.167969 C 233.496094 242.40625 233.253906 241.65625 232.972656 240.917969 C 232.691406 240.179688 232.375 239.457031 232.023438 238.75 C 231.671875 238.042969 231.285156 237.355469 230.867188 236.683594 C 230.445312 236.015625 229.996094 235.367188 229.511719 234.742188 C 229.03125 234.117188 228.515625 233.519531 227.976562 232.945312 C 227.433594 232.367188 226.863281 231.820312 226.269531 231.300781 C 225.671875 230.785156 225.054688 230.296875 224.410156 229.835938 C 223.765625 229.378906 223.101562 228.953125 222.417969 228.558594 C 221.734375 228.167969 221.03125 227.808594 220.308594 227.484375 C 219.589844 227.160156 218.855469 226.871094 218.105469 226.621094 C 217.355469 226.367188 216.597656 226.152344 215.828125 225.976562 C 215.058594 225.800781 214.28125 225.660156 213.5 225.558594 C 212.714844 225.457031 211.929688 225.394531 211.136719 225.371094 C 210.347656 225.347656 209.558594 225.363281 208.773438 225.414062 C 207.984375 225.46875 207.199219 225.5625 206.421875 225.691406 Z M 212.457031 261.632812 C 211.660156 261.765625 210.859375 261.820312 210.050781 261.796875 C 209.242188 261.773438 208.445312 261.667969 207.65625 261.488281 C 206.867188 261.308594 206.105469 261.050781 205.367188 260.71875 C 204.628906 260.386719 203.933594 259.988281 203.273438 259.519531 C 202.613281 259.046875 202.007812 258.519531 201.453125 257.929688 C 200.898438 257.34375 200.40625 256.707031 199.976562 256.019531 C 199.550781 255.335938 199.191406 254.613281 198.902344 253.859375 C 198.617188 253.101562 198.40625 252.324219 198.273438 251.527344 C 198.136719 250.730469 198.082031 249.929688 198.105469 249.121094 C 198.132812 248.3125 198.234375 247.511719 198.414062 246.726562 C 198.597656 245.9375 198.851562 245.175781 199.183594 244.4375 C 199.515625 243.699219 199.914062 243 200.382812 242.34375 C 200.855469 241.683594 201.382812 241.078125 201.972656 240.523438 C 202.558594 239.96875 203.195312 239.476562 203.882812 239.046875 C 204.566406 238.617188 205.289062 238.257812 206.042969 237.972656 C 206.800781 237.683594 207.574219 237.472656 208.375 237.339844 C 209.171875 237.207031 209.972656 237.148438 210.78125 237.175781 C 211.589844 237.199219 212.386719 237.300781 213.175781 237.480469 C 213.964844 237.664062 214.726562 237.917969 215.464844 238.25 C 216.203125 238.582031 216.902344 238.980469 217.558594 239.449219 C 218.21875 239.917969 218.824219 240.449219 219.378906 241.035156 C 219.933594 241.625 220.425781 242.261719 220.855469 242.945312 C 221.285156 243.632812 221.644531 244.351562 221.929688 245.109375 C 222.21875 245.863281 222.429688 246.640625 222.5625 247.4375 C 222.699219 248.234375 222.75 249.039062 222.726562 249.847656 C 222.703125 250.65625 222.601562 251.453125 222.417969 252.242188 C 222.238281 253.03125 221.980469 253.792969 221.648438 254.53125 C 221.316406 255.269531 220.917969 255.964844 220.449219 256.625 C 219.976562 257.285156 219.449219 257.890625 218.859375 258.445312 C 218.273438 259 217.636719 259.492188 216.949219 259.921875 C 216.265625 260.351562 215.542969 260.710938 214.789062 261 C 214.03125 261.285156 213.257812 261.496094 212.457031 261.632812 Z M 212.457031 261.632812 " fill-opacity="1" fill-rule="evenodd"/></g></g></g><g clip-path="url(#c7527dd26c)"><g clip-path="url(#79d9ccc684)"><g clip-path="url(#fd0224c305)"><path fill="#14c18e" d="M 272.738281 214.550781 C 271.957031 214.683594 271.1875 214.851562 270.425781 215.058594 C 269.664062 215.265625 268.910156 215.507812 268.171875 215.789062 C 267.433594 216.070312 266.710938 216.382812 266.003906 216.734375 C 265.296875 217.085938 264.605469 217.472656 263.9375 217.890625 C 263.265625 218.3125 262.617188 218.761719 261.992188 219.246094 C 261.367188 219.726562 260.765625 220.242188 260.191406 220.78125 C 259.617188 221.324219 259.070312 221.894531 258.550781 222.488281 C 258.03125 223.085938 257.542969 223.703125 257.082031 224.347656 C 256.625 224.992188 256.199219 225.65625 255.804688 226.339844 C 255.414062 227.027344 255.054688 227.730469 254.730469 228.449219 C 254.40625 229.171875 254.117188 229.90625 253.867188 230.65625 C 253.613281 231.402344 253.398438 232.164062 253.222656 232.933594 C 253.046875 233.703125 252.90625 234.480469 252.804688 235.265625 C 252.703125 236.046875 252.640625 236.835938 252.617188 237.625 C 252.59375 238.414062 252.609375 239.203125 252.664062 239.992188 C 252.71875 240.78125 252.8125 241.566406 252.941406 242.34375 C 253.074219 243.125 253.242188 243.894531 253.449219 244.65625 C 253.65625 245.421875 253.898438 246.171875 254.179688 246.910156 C 254.460938 247.648438 254.777344 248.371094 255.128906 249.078125 C 255.480469 249.785156 255.863281 250.476562 256.285156 251.144531 C 256.703125 251.816406 257.152344 252.464844 257.636719 253.089844 C 258.121094 253.714844 258.632812 254.316406 259.175781 254.890625 C 259.714844 255.464844 260.285156 256.011719 260.878906 256.53125 C 261.476562 257.050781 262.097656 257.539062 262.738281 258 C 263.382812 258.457031 264.046875 258.882812 264.734375 259.277344 C 265.417969 259.667969 266.121094 260.027344 266.84375 260.351562 C 267.5625 260.675781 268.296875 260.964844 269.046875 261.214844 C 269.796875 261.464844 270.554688 261.679688 271.328125 261.859375 C 272.097656 262.035156 272.875 262.175781 273.65625 262.273438 C 274.441406 262.375 275.226562 262.4375 276.019531 262.460938 C 276.808594 262.484375 277.597656 262.46875 278.386719 262.414062 C 279.171875 262.363281 279.957031 262.269531 280.738281 262.136719 C 281.515625 262.007812 282.289062 261.839844 283.050781 261.632812 C 283.8125 261.425781 284.5625 261.179688 285.300781 260.898438 C 286.039062 260.621094 286.765625 260.304688 287.472656 259.953125 C 288.179688 259.601562 288.867188 259.214844 289.539062 258.796875 C 290.207031 258.375 290.855469 257.925781 291.480469 257.441406 C 292.105469 256.957031 292.707031 256.445312 293.28125 255.90625 C 293.855469 255.363281 294.402344 254.792969 294.921875 254.199219 C 295.441406 253.601562 295.929688 252.984375 296.390625 252.339844 C 296.847656 251.695312 297.273438 251.03125 297.667969 250.34375 C 298.058594 249.660156 298.417969 248.957031 298.742188 248.234375 C 299.066406 247.515625 299.355469 246.78125 299.605469 246.03125 C 299.859375 245.28125 300.070312 244.523438 300.25 243.75 C 300.425781 242.980469 300.566406 242.203125 300.664062 241.421875 C 300.765625 240.636719 300.828125 239.851562 300.851562 239.058594 C 300.875 238.269531 300.859375 237.480469 300.804688 236.691406 C 300.75 235.90625 300.660156 235.121094 300.527344 234.339844 C 300.398438 233.5625 300.226562 232.792969 300.019531 232.027344 C 299.8125 231.265625 299.570312 230.515625 299.289062 229.777344 C 299.007812 229.039062 298.691406 228.316406 298.339844 227.609375 C 297.988281 226.902344 297.601562 226.214844 297.183594 225.542969 C 296.765625 224.875 296.3125 224.226562 295.832031 223.601562 C 295.347656 222.976562 294.835938 222.375 294.292969 221.800781 C 293.753906 221.226562 293.183594 220.679688 292.589844 220.160156 C 291.992188 219.640625 291.371094 219.152344 290.730469 218.695312 C 290.085938 218.234375 289.421875 217.808594 288.734375 217.417969 C 288.050781 217.023438 287.347656 216.664062 286.628906 216.339844 C 285.90625 216.015625 285.171875 215.730469 284.421875 215.476562 C 283.675781 215.226562 282.914062 215.011719 282.144531 214.835938 C 281.375 214.65625 280.597656 214.519531 279.816406 214.417969 C 279.03125 214.316406 278.246094 214.253906 277.457031 214.230469 C 276.667969 214.207031 275.878906 214.222656 275.089844 214.273438 C 274.300781 214.328125 273.515625 214.421875 272.738281 214.550781 Z M 278.777344 250.492188 C 277.976562 250.625 277.175781 250.679688 276.367188 250.65625 C 275.558594 250.632812 274.761719 250.527344 273.972656 250.347656 C 273.183594 250.167969 272.421875 249.910156 271.683594 249.578125 C 270.945312 249.246094 270.25 248.847656 269.589844 248.378906 C 268.929688 247.910156 268.324219 247.378906 267.769531 246.789062 C 267.214844 246.203125 266.722656 245.566406 266.296875 244.878906 C 265.867188 244.195312 265.507812 243.472656 265.222656 242.71875 C 264.933594 241.960938 264.722656 241.183594 264.589844 240.386719 C 264.453125 239.589844 264.398438 238.789062 264.425781 237.980469 C 264.449219 237.171875 264.550781 236.371094 264.730469 235.585938 C 264.914062 234.796875 265.167969 234.035156 265.5 233.296875 C 265.832031 232.558594 266.234375 231.859375 266.703125 231.203125 C 267.171875 230.542969 267.699219 229.9375 268.289062 229.382812 C 268.875 228.828125 269.511719 228.335938 270.199219 227.90625 C 270.882812 227.476562 271.605469 227.117188 272.359375 226.832031 C 273.117188 226.542969 273.894531 226.332031 274.691406 226.199219 C 275.488281 226.066406 276.289062 226.007812 277.097656 226.035156 C 277.90625 226.058594 278.707031 226.160156 279.492188 226.339844 C 280.28125 226.523438 281.042969 226.777344 281.78125 227.109375 C 282.519531 227.441406 283.21875 227.839844 283.875 228.308594 C 284.535156 228.777344 285.140625 229.308594 285.695312 229.894531 C 286.25 230.484375 286.742188 231.121094 287.171875 231.804688 C 287.601562 232.492188 287.960938 233.210938 288.25 233.96875 C 288.535156 234.722656 288.746094 235.5 288.878906 236.296875 C 289.015625 237.09375 289.070312 237.898438 289.042969 238.707031 C 289.019531 239.515625 288.917969 240.3125 288.734375 241.101562 C 288.554688 241.890625 288.296875 242.652344 287.964844 243.390625 C 287.632812 244.128906 287.234375 244.828125 286.765625 245.484375 C 286.296875 246.144531 285.765625 246.75 285.179688 247.304688 C 284.589844 247.859375 283.953125 248.351562 283.265625 248.78125 C 282.582031 249.210938 281.863281 249.570312 281.105469 249.859375 C 280.351562 250.144531 279.574219 250.355469 278.777344 250.492188 Z M 278.777344 250.492188 " fill-opacity="1" fill-rule="evenodd"/></g></g></g><g clip-path="url(#38b2a7572e)"><g clip-path="url(#929cda9fc3)"><path fill="#ffffff" d="M 271.746094 85.679688 L 331.726562 85.679688 L 331.726562 145.65625 L 271.746094 145.65625 Z M 271.746094 85.679688 " fill-opacity="1" fill-rule="nonzero"/></g></g><g clip-path="url(#ec7635b17c)"><g clip-path="url(#eafadb417e)"><path fill="#14c18e" d="M 279.804688 93.738281 L 323.667969 93.738281 L 323.667969 137.597656 L 279.804688 137.597656 Z M 279.804688 93.738281 " fill-opacity="1" fill-rule="nonzero"/></g></g><g clip-path="url(#2dee1feb7a)"><path fill="#ffffff" d="M 313.714844 105.160156 C 313.28125 105.171875 312.914062 105.335938 312.613281 105.644531 L 296.132812 122.125 L 290.859375 116.851562 C 290.710938 116.695312 290.539062 116.578125 290.339844 116.492188 C 290.140625 116.40625 289.9375 116.363281 289.722656 116.359375 C 289.503906 116.359375 289.296875 116.398438 289.097656 116.480469 C 288.898438 116.558594 288.722656 116.675781 288.574219 116.828125 C 288.421875 116.980469 288.304688 117.15625 288.222656 117.355469 C 288.140625 117.554688 288.101562 117.761719 288.101562 117.976562 C 288.105469 118.191406 288.148438 118.398438 288.234375 118.597656 C 288.320312 118.792969 288.441406 118.96875 288.59375 119.117188 L 295 125.519531 C 295.148438 125.671875 295.324219 125.785156 295.519531 125.867188 C 295.714844 125.949219 295.917969 125.988281 296.132812 125.988281 C 296.34375 125.988281 296.546875 125.949219 296.746094 125.867188 C 296.941406 125.785156 297.113281 125.671875 297.265625 125.519531 L 314.875 107.910156 C 315.113281 107.679688 315.265625 107.402344 315.328125 107.078125 C 315.394531 106.753906 315.363281 106.441406 315.234375 106.136719 C 315.105469 105.832031 314.902344 105.589844 314.625 105.414062 C 314.347656 105.234375 314.042969 105.148438 313.714844 105.160156 Z M 313.714844 105.160156 " fill-opacity="1" fill-rule="nonzero"/></g><g fill="#0182ca" fill-opacity="1"><g transform="translate(110.806704, 360.206196)"><g><path d="M 1.25 -0.3125 L 1.25 -11.140625 C 1.25 -11.347656 1.347656 -11.453125 1.546875 -11.453125 L 9.09375 -11.453125 C 9.300781 -11.453125 9.40625 -11.347656 9.40625 -11.140625 L 9.40625 -9.65625 C 9.40625 -9.445312 9.300781 -9.34375 9.09375 -9.34375 L 3.5 -9.34375 L 3.5 -7.015625 L 7.765625 -7.015625 C 7.992188 -7.015625 8.109375 -6.910156 8.109375 -6.703125 L 8.109375 -5.234375 C 8.109375 -5.023438 7.992188 -4.921875 7.765625 -4.921875 L 3.5 -4.921875 L 3.5 -2.09375 L 9.234375 -2.09375 C 9.453125 -2.09375 9.5625 -1.992188 9.5625 -1.796875 L 9.5625 -0.3125 C 9.5625 -0.101562 9.453125 0 9.234375 0 L 1.546875 0 C 1.347656 0 1.25 -0.101562 1.25 -0.3125 Z M 1.25 -0.3125 "/></g></g></g><g fill="#0182ca" fill-opacity="1"><g transform="translate(125.355452, 360.206196)"><g><path d="M 1.640625 -5.359375 L 6.671875 -5.359375 C 6.785156 -5.359375 6.878906 -5.320312 6.953125 -5.25 C 7.035156 -5.175781 7.078125 -5.078125 7.078125 -4.953125 L 7.078125 -3.859375 C 7.078125 -3.753906 7.039062 -3.65625 6.96875 -3.5625 C 6.894531 -3.46875 6.796875 -3.421875 6.671875 -3.421875 L 1.640625 -3.421875 C 1.367188 -3.421875 1.234375 -3.566406 1.234375 -3.859375 L 1.234375 -4.953125 C 1.234375 -5.222656 1.367188 -5.359375 1.640625 -5.359375 Z M 1.640625 -5.359375 "/></g></g></g><g fill="#0182ca" fill-opacity="1"><g transform="translate(137.973624, 360.206196)"><g><path d="M 8.765625 -2.671875 C 8.867188 -2.753906 8.960938 -2.796875 9.046875 -2.796875 C 9.128906 -2.796875 9.203125 -2.753906 9.265625 -2.671875 L 10.03125 -1.359375 C 10.164062 -1.191406 10.140625 -1.039062 9.953125 -0.90625 C 9.515625 -0.582031 9.019531 -0.320312 8.46875 -0.125 C 7.925781 0.0703125 7.304688 0.171875 6.609375 0.171875 C 5.796875 0.171875 5.023438 0.0195312 4.296875 -0.28125 C 3.578125 -0.582031 2.945312 -1.003906 2.40625 -1.546875 C 1.875 -2.097656 1.453125 -2.726562 1.140625 -3.4375 C 0.828125 -4.15625 0.671875 -4.925781 0.671875 -5.75 C 0.671875 -6.570312 0.828125 -7.335938 1.140625 -8.046875 C 1.453125 -8.753906 1.875 -9.375 2.40625 -9.90625 C 2.945312 -10.445312 3.578125 -10.867188 4.296875 -11.171875 C 5.023438 -11.472656 5.796875 -11.625 6.609375 -11.625 C 7.304688 -11.625 7.929688 -11.523438 8.484375 -11.328125 C 9.035156 -11.140625 9.53125 -10.882812 9.96875 -10.5625 C 10.050781 -10.488281 10.09375 -10.414062 10.09375 -10.34375 C 10.09375 -10.269531 10.082031 -10.210938 10.0625 -10.171875 L 9.25 -8.78125 C 9.207031 -8.71875 9.144531 -8.6875 9.0625 -8.6875 C 9 -8.6875 8.914062 -8.710938 8.8125 -8.765625 C 8.457031 -8.992188 8.101562 -9.171875 7.75 -9.296875 C 7.40625 -9.421875 7.023438 -9.484375 6.609375 -9.484375 C 5.921875 -9.484375 5.300781 -9.316406 4.75 -8.984375 C 4.195312 -8.648438 3.757812 -8.203125 3.4375 -7.640625 C 3.125 -7.078125 2.96875 -6.445312 2.96875 -5.75 C 2.96875 -5.050781 3.125 -4.414062 3.4375 -3.84375 C 3.757812 -3.269531 4.195312 -2.804688 4.75 -2.453125 C 5.300781 -2.109375 5.921875 -1.9375 6.609375 -1.9375 C 7.023438 -1.9375 7.421875 -2.003906 7.796875 -2.140625 C 8.171875 -2.285156 8.492188 -2.460938 8.765625 -2.671875 Z M 8.765625 -2.671875 "/></g></g></g><g fill="#0182ca" fill-opacity="1"><g transform="translate(153.495371, 360.206196)"><g><path d="M 12.453125 -5.734375 C 12.453125 -4.910156 12.296875 -4.144531 11.984375 -3.4375 C 11.679688 -2.726562 11.257812 -2.101562 10.71875 -1.5625 C 10.175781 -1.019531 9.546875 -0.597656 8.828125 -0.296875 C 8.117188 0.00390625 7.359375 0.15625 6.546875 0.15625 C 5.734375 0.15625 4.972656 0.00390625 4.265625 -0.296875 C 3.554688 -0.597656 2.929688 -1.019531 2.390625 -1.5625 C 1.859375 -2.101562 1.4375 -2.726562 1.125 -3.4375 C 0.820312 -4.144531 0.671875 -4.910156 0.671875 -5.734375 C 0.671875 -6.554688 0.820312 -7.320312 1.125 -8.03125 C 1.4375 -8.738281 1.859375 -9.363281 2.390625 -9.90625 C 2.929688 -10.445312 3.554688 -10.867188 4.265625 -11.171875 C 4.972656 -11.472656 5.734375 -11.625 6.546875 -11.625 C 7.359375 -11.625 8.117188 -11.472656 8.828125 -11.171875 C 9.546875 -10.867188 10.175781 -10.445312 10.71875 -9.90625 C 11.257812 -9.363281 11.679688 -8.738281 11.984375 -8.03125 C 12.296875 -7.320312 12.453125 -6.554688 12.453125 -5.734375 Z M 10.1875 -5.734375 C 10.1875 -6.429688 10.023438 -7.054688 9.703125 -7.609375 C 9.390625 -8.171875 8.957031 -8.617188 8.40625 -8.953125 C 7.863281 -9.296875 7.242188 -9.46875 6.546875 -9.46875 C 5.859375 -9.46875 5.238281 -9.296875 4.6875 -8.953125 C 4.144531 -8.617188 3.71875 -8.171875 3.40625 -7.609375 C 3.09375 -7.054688 2.9375 -6.429688 2.9375 -5.734375 C 2.9375 -5.035156 3.09375 -4.40625 3.40625 -3.84375 C 3.71875 -3.289062 4.144531 -2.84375 4.6875 -2.5 C 5.238281 -2.164062 5.859375 -2 6.546875 -2 C 7.242188 -2 7.863281 -2.164062 8.40625 -2.5 C 8.957031 -2.84375 9.390625 -3.289062 9.703125 -3.84375 C 10.023438 -4.40625 10.1875 -5.035156 10.1875 -5.734375 Z M 10.1875 -5.734375 "/></g></g></g><g fill="#0182ca" fill-opacity="1"><g transform="translate(171.302913, 360.206196)"><g><path d="M 6.390625 -0.515625 L 3.8125 -7.59375 L 3 -0.3125 C 2.976562 -0.101562 2.875 0 2.6875 0 L 1.109375 0 C 0.890625 0 0.789062 -0.101562 0.8125 -0.3125 L 1.984375 -11.15625 C 2.003906 -11.363281 2.113281 -11.46875 2.3125 -11.46875 L 4.328125 -11.46875 C 4.410156 -11.46875 4.46875 -11.441406 4.5 -11.390625 C 4.53125 -11.347656 4.5625 -11.28125 4.59375 -11.1875 L 7.359375 -3.546875 L 10.078125 -11.171875 C 10.148438 -11.367188 10.25 -11.46875 10.375 -11.46875 L 12.421875 -11.46875 C 12.617188 -11.46875 12.726562 -11.363281 12.75 -11.15625 L 13.90625 -0.3125 C 13.9375 -0.101562 13.835938 0 13.609375 0 L 12.046875 0 C 11.867188 0 11.765625 -0.0976562 11.734375 -0.296875 L 10.9375 -7.59375 L 8.328125 -0.515625 C 8.285156 -0.398438 8.238281 -0.320312 8.1875 -0.28125 C 8.144531 -0.25 8.082031 -0.234375 8 -0.234375 L 6.703125 -0.234375 C 6.628906 -0.234375 6.566406 -0.25 6.515625 -0.28125 C 6.472656 -0.320312 6.429688 -0.398438 6.390625 -0.515625 Z M 6.390625 -0.515625 "/></g></g></g><g fill="#0182ca" fill-opacity="1"><g transform="translate(190.237909, 360.206196)"><g><path d="M 6.390625 -0.515625 L 3.8125 -7.59375 L 3 -0.3125 C 2.976562 -0.101562 2.875 0 2.6875 0 L 1.109375 0 C 0.890625 0 0.789062 -0.101562 0.8125 -0.3125 L 1.984375 -11.15625 C 2.003906 -11.363281 2.113281 -11.46875 2.3125 -11.46875 L 4.328125 -11.46875 C 4.410156 -11.46875 4.46875 -11.441406 4.5 -11.390625 C 4.53125 -11.347656 4.5625 -11.28125 4.59375 -11.1875 L 7.359375 -3.546875 L 10.078125 -11.171875 C 10.148438 -11.367188 10.25 -11.46875 10.375 -11.46875 L 12.421875 -11.46875 C 12.617188 -11.46875 12.726562 -11.363281 12.75 -11.15625 L 13.90625 -0.3125 C 13.9375 -0.101562 13.835938 0 13.609375 0 L 12.046875 0 C 11.867188 0 11.765625 -0.0976562 11.734375 -0.296875 L 10.9375 -7.59375 L 8.328125 -0.515625 C 8.285156 -0.398438 8.238281 -0.320312 8.1875 -0.28125 C 8.144531 -0.25 8.082031 -0.234375 8 -0.234375 L 6.703125 -0.234375 C 6.628906 -0.234375 6.566406 -0.25 6.515625 -0.28125 C 6.472656 -0.320312 6.429688 -0.398438 6.390625 -0.515625 Z M 6.390625 -0.515625 "/></g></g></g><g fill="#0182ca" fill-opacity="1"><g transform="translate(209.172905, 360.206196)"><g><path d="M 1.25 -0.3125 L 1.25 -11.140625 C 1.25 -11.347656 1.347656 -11.453125 1.546875 -11.453125 L 9.09375 -11.453125 C 9.300781 -11.453125 9.40625 -11.347656 9.40625 -11.140625 L 9.40625 -9.65625 C 9.40625 -9.445312 9.300781 -9.34375 9.09375 -9.34375 L 3.5 -9.34375 L 3.5 -7.015625 L 7.765625 -7.015625 C 7.992188 -7.015625 8.109375 -6.910156 8.109375 -6.703125 L 8.109375 -5.234375 C 8.109375 -5.023438 7.992188 -4.921875 7.765625 -4.921875 L 3.5 -4.921875 L 3.5 -2.09375 L 9.234375 -2.09375 C 9.453125 -2.09375 9.5625 -1.992188 9.5625 -1.796875 L 9.5625 -0.3125 C 9.5625 -0.101562 9.453125 0 9.234375 0 L 1.546875 0 C 1.347656 0 1.25 -0.101562 1.25 -0.3125 Z M 1.25 -0.3125 "/></g></g></g><g fill="#0182ca" fill-opacity="1"><g transform="translate(223.721651, 360.206196)"><g><path d="M 1.25 -0.3125 L 1.25 -11.140625 C 1.25 -11.222656 1.269531 -11.296875 1.3125 -11.359375 C 1.363281 -11.421875 1.441406 -11.453125 1.546875 -11.453125 L 6.453125 -11.453125 C 7.160156 -11.453125 7.785156 -11.273438 8.328125 -10.921875 C 8.878906 -10.566406 9.304688 -10.097656 9.609375 -9.515625 C 9.921875 -8.941406 10.078125 -8.332031 10.078125 -7.6875 C 10.078125 -7.039062 9.894531 -6.429688 9.53125 -5.859375 C 9.175781 -5.285156 8.710938 -4.832031 8.140625 -4.5 L 10.234375 -0.328125 C 10.273438 -0.253906 10.273438 -0.179688 10.234375 -0.109375 C 10.203125 -0.0351562 10.132812 0 10.03125 0 L 8.046875 0 C 7.890625 0 7.769531 -0.0859375 7.6875 -0.265625 L 5.84375 -3.96875 L 3.5 -3.96875 L 3.5 -0.3125 C 3.5 -0.101562 3.398438 0 3.203125 0 L 1.546875 0 C 1.347656 0 1.25 -0.101562 1.25 -0.3125 Z M 5.90625 -9.46875 L 3.5 -9.46875 L 3.5 -6 L 5.90625 -6 C 6.445312 -6 6.894531 -6.160156 7.25 -6.484375 C 7.601562 -6.816406 7.78125 -7.234375 7.78125 -7.734375 C 7.78125 -8.210938 7.601562 -8.617188 7.25 -8.953125 C 6.894531 -9.296875 6.445312 -9.46875 5.90625 -9.46875 Z M 5.90625 -9.46875 "/></g></g></g><g fill="#0182ca" fill-opacity="1"><g transform="translate(238.718295, 360.206196)"><g><path d="M 8.765625 -2.671875 C 8.867188 -2.753906 8.960938 -2.796875 9.046875 -2.796875 C 9.128906 -2.796875 9.203125 -2.753906 9.265625 -2.671875 L 10.03125 -1.359375 C 10.164062 -1.191406 10.140625 -1.039062 9.953125 -0.90625 C 9.515625 -0.582031 9.019531 -0.320312 8.46875 -0.125 C 7.925781 0.0703125 7.304688 0.171875 6.609375 0.171875 C 5.796875 0.171875 5.023438 0.0195312 4.296875 -0.28125 C 3.578125 -0.582031 2.945312 -1.003906 2.40625 -1.546875 C 1.875 -2.097656 1.453125 -2.726562 1.140625 -3.4375 C 0.828125 -4.15625 0.671875 -4.925781 0.671875 -5.75 C 0.671875 -6.570312 0.828125 -7.335938 1.140625 -8.046875 C 1.453125 -8.753906 1.875 -9.375 2.40625 -9.90625 C 2.945312 -10.445312 3.578125 -10.867188 4.296875 -11.171875 C 5.023438 -11.472656 5.796875 -11.625 6.609375 -11.625 C 7.304688 -11.625 7.929688 -11.523438 8.484375 -11.328125 C 9.035156 -11.140625 9.53125 -10.882812 9.96875 -10.5625 C 10.050781 -10.488281 10.09375 -10.414062 10.09375 -10.34375 C 10.09375 -10.269531 10.082031 -10.210938 10.0625 -10.171875 L 9.25 -8.78125 C 9.207031 -8.71875 9.144531 -8.6875 9.0625 -8.6875 C 9 -8.6875 8.914062 -8.710938 8.8125 -8.765625 C 8.457031 -8.992188 8.101562 -9.171875 7.75 -9.296875 C 7.40625 -9.421875 7.023438 -9.484375 6.609375 -9.484375 C 5.921875 -9.484375 5.300781 -9.316406 4.75 -8.984375 C 4.195312 -8.648438 3.757812 -8.203125 3.4375 -7.640625 C 3.125 -7.078125 2.96875 -6.445312 2.96875 -5.75 C 2.96875 -5.050781 3.125 -4.414062 3.4375 -3.84375 C 3.757812 -3.269531 4.195312 -2.804688 4.75 -2.453125 C 5.300781 -2.109375 5.921875 -1.9375 6.609375 -1.9375 C 7.023438 -1.9375 7.421875 -2.003906 7.796875 -2.140625 C 8.171875 -2.285156 8.492188 -2.460938 8.765625 -2.671875 Z M 8.765625 -2.671875 "/></g></g></g><g fill="#0182ca" fill-opacity="1"><g transform="translate(254.240037, 360.206196)"><g><path d="M 1.25 -0.3125 L 1.25 -11.140625 C 1.25 -11.347656 1.347656 -11.453125 1.546875 -11.453125 L 9.09375 -11.453125 C 9.300781 -11.453125 9.40625 -11.347656 9.40625 -11.140625 L 9.40625 -9.65625 C 9.40625 -9.445312 9.300781 -9.34375 9.09375 -9.34375 L 3.5 -9.34375 L 3.5 -7.015625 L 7.765625 -7.015625 C 7.992188 -7.015625 8.109375 -6.910156 8.109375 -6.703125 L 8.109375 -5.234375 C 8.109375 -5.023438 7.992188 -4.921875 7.765625 -4.921875 L 3.5 -4.921875 L 3.5 -2.09375 L 9.234375 -2.09375 C 9.453125 -2.09375 9.5625 -1.992188 9.5625 -1.796875 L 9.5625 -0.3125 C 9.5625 -0.101562 9.453125 0 9.234375 0 L 1.546875 0 C 1.347656 0 1.25 -0.101562 1.25 -0.3125 Z M 1.25 -0.3125 "/></g></g></g><g fill="#0182ca" fill-opacity="1"><g transform="translate(56.816177, 333.436469)"><g><path d="M 17.578125 -40.578125 C 19.742188 -40.578125 21.851562 -40.265625 23.90625 -39.640625 C 25.96875 -39.015625 27.5 -38.394531 28.5 -37.78125 L 29.953125 -36.8125 L 26.28125 -29.5625 C 25.988281 -29.757812 25.582031 -30.007812 25.0625 -30.3125 C 24.550781 -30.625 23.585938 -31.035156 22.171875 -31.546875 C 20.753906 -32.066406 19.4375 -32.328125 18.21875 -32.328125 C 16.695312 -32.328125 15.523438 -32.003906 14.703125 -31.359375 C 13.890625 -30.710938 13.484375 -29.84375 13.484375 -28.75 C 13.484375 -28.195312 13.675781 -27.6875 14.0625 -27.21875 C 14.445312 -26.757812 15.101562 -26.257812 16.03125 -25.71875 C 16.96875 -25.1875 17.789062 -24.757812 18.5 -24.4375 C 19.207031 -24.125 20.300781 -23.644531 21.78125 -23 C 24.363281 -21.90625 26.5625 -20.414062 28.375 -18.53125 C 30.195312 -16.644531 31.109375 -14.507812 31.109375 -12.125 C 31.109375 -9.84375 30.695312 -7.847656 29.875 -6.140625 C 29.0625 -4.429688 27.9375 -3.09375 26.5 -2.125 C 25.0625 -1.15625 23.472656 -0.441406 21.734375 0.015625 C 19.992188 0.484375 18.113281 0.71875 16.09375 0.71875 C 14.351562 0.71875 12.644531 0.539062 10.96875 0.1875 C 9.289062 -0.164062 7.890625 -0.609375 6.765625 -1.140625 C 5.640625 -1.671875 4.625 -2.191406 3.71875 -2.703125 C 2.820312 -3.222656 2.160156 -3.660156 1.734375 -4.015625 L 1.109375 -4.546875 L 5.65625 -12.171875 C 6.039062 -11.847656 6.570312 -11.4375 7.25 -10.9375 C 7.925781 -10.4375 9.125 -9.769531 10.84375 -8.9375 C 12.570312 -8.101562 14.09375 -7.6875 15.40625 -7.6875 C 19.238281 -7.6875 21.15625 -8.988281 21.15625 -11.59375 C 21.15625 -12.144531 21.019531 -12.648438 20.75 -13.109375 C 20.476562 -13.578125 19.992188 -14.046875 19.296875 -14.515625 C 18.609375 -14.984375 18 -15.351562 17.46875 -15.625 C 16.9375 -15.90625 16.066406 -16.328125 14.859375 -16.890625 C 13.648438 -17.453125 12.753906 -17.878906 12.171875 -18.171875 C 9.753906 -19.359375 7.882812 -20.84375 6.5625 -22.625 C 5.25 -24.414062 4.59375 -26.34375 4.59375 -28.40625 C 4.59375 -31.976562 5.910156 -34.898438 8.546875 -37.171875 C 11.191406 -39.441406 14.203125 -40.578125 17.578125 -40.578125 Z M 17.578125 -40.578125 "/></g></g></g><g fill="#0182ca" fill-opacity="1"><g transform="translate(94.107368, 333.436469)"><g><path d="M 11.984375 -15.984375 L 11.984375 0 L 2.90625 0 L 2.90625 -39.859375 L 11.984375 -39.859375 L 11.984375 -23.96875 L 24.828125 -23.96875 L 24.828125 -39.859375 L 33.921875 -39.859375 L 33.921875 0 L 24.828125 0 L 24.828125 -15.984375 Z M 11.984375 -15.984375 "/></g></g></g><g fill="#0182ca" fill-opacity="1"><g transform="translate(135.745688, 333.436469)"><g><path d="M 1.109375 -19.953125 C 1.109375 -25.710938 3.070312 -30.585938 7 -34.578125 C 10.9375 -38.578125 15.671875 -40.578125 21.203125 -40.578125 C 26.773438 -40.578125 31.507812 -38.585938 35.40625 -34.609375 C 39.3125 -30.640625 41.265625 -25.753906 41.265625 -19.953125 C 41.265625 -14.117188 39.347656 -9.210938 35.515625 -5.234375 C 31.679688 -1.265625 26.910156 0.71875 21.203125 0.71875 C 15.378906 0.71875 10.570312 -1.25 6.78125 -5.1875 C 3 -9.132812 1.109375 -14.054688 1.109375 -19.953125 Z M 10.921875 -19.953125 C 10.921875 -17.859375 11.238281 -15.945312 11.875 -14.21875 C 12.519531 -12.5 13.648438 -11.039062 15.265625 -9.84375 C 16.878906 -8.65625 18.859375 -8.0625 21.203125 -8.0625 C 24.585938 -8.0625 27.140625 -9.222656 28.859375 -11.546875 C 30.585938 -13.867188 31.453125 -16.671875 31.453125 -19.953125 C 31.453125 -23.203125 30.570312 -25.992188 28.8125 -28.328125 C 27.0625 -30.671875 24.523438 -31.84375 21.203125 -31.84375 C 17.921875 -31.84375 15.382812 -30.671875 13.59375 -28.328125 C 11.8125 -25.992188 10.921875 -23.203125 10.921875 -19.953125 Z M 10.921875 -19.953125 "/></g></g></g><g fill="#0182ca" fill-opacity="1"><g transform="translate(182.938685, 333.436469)"><g><path d="M 2.90625 -39.859375 L 17.4375 -39.859375 C 21.5 -39.859375 24.785156 -38.8125 27.296875 -36.71875 C 29.804688 -34.625 31.0625 -31.578125 31.0625 -27.578125 C 31.0625 -23.585938 29.789062 -20.457031 27.25 -18.1875 C 24.707031 -15.914062 21.4375 -14.78125 17.4375 -14.78125 L 11.984375 -14.78125 L 11.984375 0 L 2.90625 0 Z M 11.984375 -22.03125 L 14.546875 -22.03125 C 16.566406 -22.03125 18.226562 -22.441406 19.53125 -23.265625 C 20.84375 -24.085938 21.5 -25.429688 21.5 -27.296875 C 21.5 -29.191406 20.84375 -30.550781 19.53125 -31.375 C 18.226562 -32.195312 16.566406 -32.609375 14.546875 -32.609375 L 11.984375 -32.609375 Z M 11.984375 -22.03125 "/></g></g></g><g fill="#0182ca" fill-opacity="1"><g transform="translate(219.940057, 333.436469)"><g><path d="M 4.34375 -39.109375 C 5.3125 -40.085938 6.488281 -40.578125 7.875 -40.578125 C 9.257812 -40.578125 10.453125 -40.078125 11.453125 -39.078125 C 12.453125 -38.085938 12.953125 -36.898438 12.953125 -35.515625 C 12.953125 -31.253906 10.503906 -27.082031 5.609375 -23 L 3.328125 -24.78125 C 3.523438 -24.976562 3.773438 -25.242188 4.078125 -25.578125 C 4.390625 -25.921875 4.847656 -26.628906 5.453125 -27.703125 C 6.066406 -28.785156 6.472656 -29.875 6.671875 -30.96875 C 5.578125 -31.226562 4.675781 -31.773438 3.96875 -32.609375 C 3.257812 -33.441406 2.90625 -34.410156 2.90625 -35.515625 C 2.90625 -36.929688 3.382812 -38.128906 4.34375 -39.109375 Z M 4.34375 -39.109375 "/></g></g></g><g fill="#0182ca" fill-opacity="1"><g transform="translate(238.828384, 333.436469)"><g><path d="M 11.984375 -39.859375 L 11.984375 0 L 2.90625 0 L 2.90625 -39.859375 Z M 11.984375 -39.859375 "/></g></g></g><g fill="#0182ca" fill-opacity="1"><g transform="translate(258.537836, 333.436469)"><g><path d="M 11.984375 -24.734375 L 11.984375 0 L 2.90625 0 L 2.90625 -39.859375 L 11.984375 -39.859375 L 27.828125 -15.125 L 27.921875 -15.125 L 27.921875 -39.859375 L 37 -39.859375 L 37 0 L 27.921875 0 L 12.078125 -24.734375 Z M 11.984375 -24.734375 "/></g></g></g><g fill="#0182ca" fill-opacity="1"><g transform="translate(303.267451, 333.436469)"><g><path d="M 11.984375 -39.859375 L 11.984375 0 L 2.90625 0 L 2.90625 -39.859375 Z M 11.984375 -39.859375 "/></g></g></g></svg>